#!OML:ASF E:\acrobat2\Project_11_07_03\Capture day 1\Session 1\Acrobat.ASF
:FULLY-SPECIFIED
:DEGREES
536
root 10.6691 27.5101 15.7512 7.56537 2.35345 0.543391
lowerback 4.2962 0.807569 3.72256
upperback 3.61159 1.18258 0.195399
thorax 1.37996 0.664338 -1.91974
lowerneck 2.40154 -2.33917 4.19168
upperneck 21.5323 -2.13031 -6.57213
head 5.96554 -1.1272 -2.89453
rclavicle 7.35503e-015 -2.42517e-014
rhumerus -40.3678 9.34415 -79.4014
rradius 56.8317
rwrist 10.0542
rhand -13.5977 -13.3864
rfingers 7.12502
rthumb 12.517 -42.9915
lclavicle 7.35503e-015 -2.42517e-014
lhumerus -31.2542 -4.70311 77.9881
lradius 85.3198
lwrist 3.06903
lhand -46.1794 -55.2642
lfingers 7.12502
lthumb -18.9182 -26.1642
rfemur -17.7161 -1.90265 24.8864
rtibia 31.0471
rfoot -29.5258 -8.78147
rtoes -22.2598
lfemur -29.6933 -7.0378 -10.7395
ltibia 55.7266
lfoot -1.03088 -17.177
ltoes 35.9488
537
root 10.6689 27.5336 15.6558 7.78436 2.38373 0.493376
lowerback 4.16733 0.840411 3.96456
upperback 3.56035 1.22742 0.334088
thorax 1.40476 0.689548 -1.91198
lowerneck 2.27213 -2.3349 4.14314
upperneck 21.4613 -2.09735 -6.75149
head 5.96352 -1.12801 -2.9427
rclavicle -1.39149e-014 5.56597e-015
rhumerus -39.6322 9.86976 -79.0115
rradius 56.8496
rwrist 10.2617
rhand -13.9854 -13.2949
rfingers 7.12502
rthumb 12.1432 -42.9225
lclavicle -1.39149e-014 5.56597e-015
lhumerus -32.1649 -3.77608 77.5967
lradius 86.5115
lwrist 2.6631
lhand -46.1361 -55.4829
lfingers 7.12502
lthumb -18.8766 -26.3788
rfemur -16.8071 -1.29913 25.0454
rtibia 29.8648
rfoot -30.2092 -8.98167
rtoes -22.9013
lfemur -30.4365 -6.39198 -10.6574
ltibia 55.049
lfoot -2.03315 -17.032
ltoes 35.0276
538
root 10.6715 27.5608 15.5599 8.00917 2.46364 0.387263
lowerback 4.05048 0.849181 4.30981
upperback 3.51271 1.24283 0.478032
thorax 1.42757 0.702053 -1.95583
lowerneck 2.18036 -2.34383 4.17014
upperneck 21.3388 -2.07415 -7.00164
head 5.93569 -1.13191 -3.02501
rclavicle -2.40529e-014 -8.74653e-015
rhumerus -38.9038 10.3453 -78.6184
rradius 56.9125
rwrist 10.4217
rhand -14.3489 -13.2219
rfingers 7.12502
rthumb 11.7927 -42.8699
lclavicle -2.40529e-014 -8.74653e-015
lhumerus -33.0853 -2.85133 77.1232
lradius 87.769
lwrist 2.46107
lhand -46.0983 -55.6078
lfingers 7.12502
lthumb -18.8402 -26.5002
rfemur -15.9065 -0.755075 25.235
rtibia 28.6409
rfoot -30.7709 -9.18192
rtoes -23.3855
lfemur -31.1317 -5.83042 -10.5706
ltibia 54.157
lfoot -2.80789 -16.9372
ltoes 34.2968
539
root 10.6764 27.5907 15.4639 8.22099 2.5935 0.206424
lowerback 3.96113 0.850741 4.78824
upperback 3.46923 1.25273 0.6206
thorax 1.44285 0.714342 -2.07569
lowerneck 2.12154 -2.37478 4.24322
upperneck 21.1932 -2.08115 -7.26301
head 5.89234 -1.14695 -3.11878
rclavicle -2.48481e-014 -8.74653e-015
rhumerus -38.2134 10.7254 -78.2296
rradius 57.0248
rwrist 10.4875
rhand -14.6567 -13.1456
rfingers 7.12502
rthumb 11.4959 -42.8104
lclavicle -2.48481e-014 -8.74653e-015
lhumerus -34.0068 -1.96962 76.5742
lradius 89.0959
lwrist 2.44581
lhand -46.1 -55.7605
lfingers 7.12502
lthumb -18.8419 -26.6531
rfemur -15.0065 -0.299022 25.4769
rtibia 27.3994
rfoot -31.2195 -9.35509
rtoes -23.7022
lfemur -31.7582 -5.34369 -10.454
ltibia 53.0721
lfoot -3.34159 -16.9342
ltoes 33.8011
540
root 10.683 27.6222 15.3682 8.41273 2.77364 -0.0438084
lowerback 3.89127 0.853361 5.38902
upperback 3.43496 1.26729 0.761049
thorax 1.46099 0.731559 -2.26613
lowerneck 2.05347 -2.42754 4.35504
upperneck 21.0616 -2.12073 -7.51712
head 5.85256 -1.17437 -3.21838
rclavicle -2.80286e-014 -7.95139e-015
rhumerus -37.5707 10.9933 -77.8409
rradius 57.19
rwrist 10.4326
rhand -14.875 -13.0702
rfingers 7.12502
rthumb 11.2853 -42.7466
lclavicle -2.80286e-014 -7.95139e-015
lhumerus -34.9299 -1.12955 75.9673
lradius 90.4961
lwrist 2.53967
lhand -46.197 -55.9656
lfingers 7.12502
lthumb -18.9351 -26.8672
rfemur -14.1061 0.0284786 25.7646
rtibia 26.1645
rfoot -31.5288 -9.48513
rtoes -24.0466
lfemur -32.3053 -4.91195 -10.3111
ltibia 51.8083
lfoot -3.61273 -17.0361
ltoes 33.6018
541
root 10.691 27.6549 15.2728 8.58592 2.97279 -0.301379
lowerback 3.83901 0.864553 6.02944
upperback 3.41085 1.29441 0.891774
thorax 1.48293 0.756188 -2.48874
lowerneck 1.9528 -2.48854 4.48027
upperneck 20.968 -2.17565 -7.74864
head 5.82949 -1.20733 -3.31495
rclavicle -1.15295e-014 -1.19271e-014
rhumerus -36.9768 11.1628 -77.444
rradius 57.4158
rwrist 10.2614
rhand -14.9884 -13.0279
rfingers 7.12502
rthumb 11.1759 -42.7103
lclavicle -1.15295e-014 -1.19271e-014
lhumerus -35.85 -0.307596 75.3097
lradius 91.9391
lwrist 2.66882
lhand -46.3946 -56.2224
lfingers 7.12502
lthumb -19.1252 -27.1427
rfemur -13.2181 0.219709 26.0168
rtibia 24.964
rfoot -31.6693 -9.56834
rtoes -24.6367
lfemur -32.7702 -4.49897 -10.2195
ltibia 50.3951
lfoot -3.63115 -17.2321
ltoes 33.7118
542
root 10.7 27.6878 15.1775 8.74831 3.15567 -0.531788
lowerback 3.80278 0.888156 6.64422
upperback 3.39273 1.3378 1.01759
thorax 1.50392 0.78858 -2.70216
lowerneck 1.82529 -2.54631 4.5843
upperneck 20.9176 -2.22951 -7.95087
head 5.82543 -1.24005 -3.40001
rclavicle 1.19271e-014 -2.38542e-015
rhumerus -36.4335 11.2744 -77.0287
rradius 57.7106
rwrist 10.004
rhand -14.9922 -13.033
rfingers 7.12502
rthumb 11.1723 -42.7156
lclavicle 1.19271e-014 -2.38542e-015
lhumerus -36.7605 0.540765 74.6007
lradius 93.3767
lwrist 2.80011
lhand -46.6502 -56.5439
lfingers 7.12502
lthumb -19.371 -27.4887
rfemur -12.3625 0.299723 26.1884
rtibia 23.8221
rfoot -31.6381 -9.60223
rtoes -25.565
lfemur -33.1605 -4.06275 -10.2207
ltibia 48.869
lfoot -3.40074 -17.4956
ltoes 34.1852
543
root 10.7103 27.7198 15.0817 8.90763 3.29146 -0.704068
lowerback 3.78258 0.926526 7.18629
upperback 3.37955 1.39981 1.13716
thorax 1.5219 0.828906 -2.88155
lowerneck 1.66968 -2.6008 4.66484
upperneck 20.9136 -2.27824 -8.14499
head 5.84157 -1.27227 -3.48005
rclavicle -1.37161e-014 2.38542e-015
rhumerus -35.9265 11.3702 -76.5832
rradius 58.0699
rwrist 9.68906
rhand -14.9299 -13.0906
rfingers 7.12502
rthumb 11.2324 -42.7699
lclavicle -1.37161e-014 2.38542e-015
lhumerus -37.6457 1.44452 73.8412
lradius 94.767
lwrist 2.92564
lhand -46.9084 -56.8655
lfingers 7.12502
lthumb -19.6192 -27.8355
rfemur -11.557 0.289221 26.2367
rtibia 22.7584
rfoot -31.4343 -9.57719
rtoes -26.8135
lfemur -33.4739 -3.57735 -10.3533
ltibia 47.2522
lfoot -3.02076 -17.7467
ltoes 34.6812
544
root 10.7219 27.7509 14.9853 9.07275 3.34643 -0.779682
lowerback 3.77608 0.984027 7.6032
upperback 3.37508 1.48489 1.24166
thorax 1.5411 0.878685 -3.00693
lowerneck 1.50262 -2.6548 4.72735
upperneck 20.9281 -2.32392 -8.34686
head 5.86568 -1.30528 -3.56023
rclavicle 1.05356e-014 4.77083e-014
rhumerus -35.4319 11.4763 -76.1046
rradius 58.4762
rwrist 9.35728
rhand -14.8973 -13.1956
rfingers 7.12502
rthumb 11.2638 -42.8732
lclavicle 1.05356e-014 4.77083e-014
lhumerus -38.5064 2.40605 73.0247
lradius 96.1084
lwrist 3.04241
lhand -47.1364 -57.1048
lfingers 7.12502
lthumb -19.8384 -28.0973
rfemur -10.8204 0.236295 26.1112
rtibia 21.7954
rfoot -31.0895 -9.46293
rtoes -28.1505
lfemur -33.7009 -3.02965 -10.6607
ltibia 45.5674
lfoot -2.64741 -17.8926
ltoes 34.7608
545
root 10.734 27.7804 14.8882 9.25409 3.29323 -0.755259
lowerback 3.77393 1.0667 7.87294
upperback 3.37963 1.59972 1.33208
thorax 1.56673 0.94099 -3.06508
lowerneck 1.33471 -2.7099 4.78587
upperneck 20.9519 -2.36677 -8.57173
head 5.89245 -1.33901 -3.64747
rclavicle -2.38542e-015 1.74931e-014
rhumerus -34.9404 11.5942 -75.5958
rradius 58.9164
rwrist 9.06034
rhand -14.9533 -13.3128
rfingers 7.12502
rthumb 11.2097 -42.9933
lclavicle -2.38542e-015 1.74931e-014
lhumerus -39.3584 3.41526 72.144
lradius 97.4303
lwrist 3.14749
lhand -47.3409 -57.2265
lfingers 7.12502
lthumb -20.035 -28.2394
rfemur -10.1743 0.202476 25.8109
rtibia 20.9547
rfoot -30.6372 -9.24461
rtoes -29.3964
lfemur -33.8396 -2.41376 -11.1323
ltibia 43.8363
lfoot -2.34551 -17.8683
ltoes 34.4036
546
root 10.7468 27.8078 14.7911 9.45407 3.12041 -0.656705
lowerback 3.76637 1.17807 8.02234
upperback 3.39231 1.74864 1.41078
thorax 1.6042 1.01865 -3.06841
lowerneck 1.18113 -2.77169 4.86024
upperneck 20.9761 -2.41228 -8.83705
head 5.9153 -1.37551 -3.75051
rclavicle -3.57812e-015 -7.15625e-015
rhumerus -34.4464 11.7189 -75.0603
rradius 59.3779
rwrist 8.82
rhand -15.1078 -13.3945
rfingers 7.12502
rthumb 11.0607 -43.0831
lclavicle -3.57812e-015 -7.15625e-015
lhumerus -40.1981 4.46912 71.1938
lradius 98.7265
lwrist 3.26384
lhand -47.4595 -57.21
lfingers 7.12502
lthumb -20.149 -28.2348
rfemur -9.62382 0.206288 25.3682
rtibia 20.2452
rfoot -30.0873 -8.92158
rtoes -30.5169
lfemur -33.8814 -1.74562 -11.7234
ltibia 42.0638
lfoot -2.12487 -17.6259
ltoes 33.7357
547
root 10.7601 27.8324 14.6939 9.66712 2.83314 -0.522836
lowerback 3.75535 1.31918 8.09642
upperback 3.41019 1.93447 1.47899
thorax 1.65079 1.11374 -3.04078
lowerneck 1.06046 -2.84076 4.9486
upperneck 20.9893 -2.46442 -9.12377
head 5.92758 -1.41511 -3.86238
rclavicle -4.77083e-015 -1.19271e-014
rhumerus -33.9502 11.8533 -74.5077
rradius 59.8482
rwrist 8.62889
rhand -15.3378 -13.4341
rfingers 7.12502
rthumb 10.8389 -43.1344
lclavicle -4.77083e-015 -1.19271e-014
lhumerus -41.0129 5.54786 70.1667
lradius 99.993
lwrist 3.4118
lhand -47.5175 -57.1533
lfingers 7.12502
lthumb -20.2047 -28.1841
rfemur -9.16453 0.261097 24.8342
rtibia 19.672
rfoot -29.4714 -8.49312
rtoes -31.4535
lfemur -33.8244 -1.05988 -12.3719
ltibia 40.2672
lfoot -1.97658 -17.1333
ltoes 32.8653
548
root 10.7736 27.8546 14.5973 9.8909 2.46893 -0.40998
lowerback 3.72992 1.4864 8.16487
upperback 3.42764 2.15321 1.54298
thorax 1.70872 1.22549 -3.01393
lowerneck 0.948145 -2.91118 5.05325
upperneck 21.0335 -2.51921 -9.39988
head 5.94772 -1.45418 -3.9747
rclavicle 2.22639e-014 -3.26007e-014
rhumerus -33.4646 11.9774 -73.9518
rradius 60.3242
rwrist 8.47567
rhand -15.5872 -13.4736
rfingers 7.12502
rthumb 10.5984 -43.1863
lclavicle 2.22639e-014 -3.26007e-014
lhumerus -41.7846 6.61123 69.0581
lradius 101.232
lwrist 3.61612
lhand -47.5712 -57.0783
lfingers 7.12502
lthumb -20.2563 -28.1146
rfemur -8.79319 0.351008 24.2835
rtibia 19.2324
rfoot -28.7926 -7.9843
rtoes -32.2798
lfemur -33.6847 -0.406886 -12.9939
ltibia 38.4718
lfoot -1.84896 -16.3659
ltoes 31.9077
